<svg width="100" height="100" viewBox="0 0 100 100" fill="none" xmlns="http://www.w3.org/2000/svg">
<path d="M50.55 31.4266C49.8686 31.3879 49.5992 30.523 50.1458 30.1162C53.0915 27.9255 60.8405 23.8401 74.8824 27.1197C88.7895 30.3685 92.7327 38.6681 93.8389 42.6351C94.0306 43.3199 93.2379 43.8476 92.6783 43.4074C88.7066 40.2848 76.7089 32.9145 50.55 31.4266Z" fill="white"/>
<path d="M9.27895 28.003C15.1689 24.5997 29.3297 18.4801 51.7058 21.2137C52.9696 21.3682 53.8704 20.0186 53.1931 18.9574C50.8015 15.2211 44.7755 8.96751 31.6061 10.1454C15.7275 11.5672 9.51636 18.748 7.07591 26.2516C6.65346 27.5565 8.07793 28.6967 9.27895 28.003Z" fill="white"/>
<path d="M67.6649 62.5851C73.1133 62.5851 77.5302 58.1683 77.5302 52.7198C77.5302 47.2714 73.1133 42.8546 67.6649 42.8546C62.2164 42.8546 57.7996 47.2714 57.7996 52.7198C57.7996 58.1683 62.2164 62.5851 67.6649 62.5851Z" fill="white"/>
<path d="M26.9985 47.9434C30.6472 47.9434 33.6051 44.9855 33.6051 41.3368C33.6051 37.688 30.6472 34.7302 26.9985 34.7302C23.3497 34.7302 20.3918 37.688 20.3918 41.3368C20.3918 44.9855 23.3497 47.9434 26.9985 47.9434Z" fill="white"/>
<path fill-rule="evenodd" clip-rule="evenodd" d="M45.0631 29.3837C46.6353 29.2506 48.0177 30.4173 48.1508 31.9895L45.304 32.2304C48.1508 31.9895 48.1508 31.9901 48.1509 31.9907L48.1513 31.9963L48.1523 32.0082C48.1531 32.0179 48.1541 32.031 48.1554 32.0473C48.158 32.0801 48.1615 32.1262 48.1658 32.1852C48.1743 32.3033 48.1858 32.4729 48.1986 32.6905C48.2243 33.1257 48.2554 33.7534 48.2786 34.5445C48.3252 36.1256 48.3409 38.3658 48.2197 41.032C47.9782 46.3425 47.1894 53.4454 44.9595 60.4232C42.8805 66.9289 41.779 73.7386 42.6592 78.6127C43.0914 81.0055 43.9494 82.6528 45.114 83.6663C46.2296 84.6372 47.9858 85.3395 50.9078 85.1386C52.482 85.0303 53.8458 86.2187 53.954 87.7928C54.0622 89.3669 52.8739 90.7307 51.2998 90.8389C47.2504 91.1174 43.8811 90.1681 41.3628 87.9764C38.8935 85.8273 37.6093 82.8008 37.0364 79.6282C35.9065 73.3715 37.3437 65.4844 39.5169 58.6839C41.5392 52.3556 42.2833 45.7969 42.5117 40.7725C42.6254 38.2711 42.6103 36.1754 42.5673 34.7125C42.5458 33.9816 42.5173 33.4103 42.4947 33.0269C42.4834 32.8353 42.4736 32.6908 42.4668 32.597C42.4634 32.55 42.4608 32.5158 42.4591 32.4948C42.4583 32.4842 42.4577 32.477 42.4574 32.473L42.4573 32.4714C42.4572 32.4711 42.4572 32.4708 42.4572 32.4705C42.4572 32.4703 42.4572 32.4701 42.4571 32.4699C42.4571 32.4699 42.4572 32.4699 42.4571 32.4699C42.325 30.8983 43.4914 29.5167 45.0631 29.3837Z" fill="white"/>
<path fill-rule="evenodd" clip-rule="evenodd" d="M14.8422 62.235C15.6765 60.8958 17.4385 60.4866 18.7777 61.3209C32.0803 69.609 47.6777 70.9035 60.1734 70.0289C66.3922 69.5936 71.7632 68.6263 75.5745 67.7686C77.4783 67.3402 78.9875 66.9404 80.0127 66.6503C80.5252 66.5053 80.9163 66.3878 81.1748 66.3081C81.304 66.2683 81.4001 66.2379 81.4615 66.2182C81.4923 66.2083 81.5143 66.2012 81.5276 66.1968L81.5406 66.1926C81.541 66.1924 81.5414 66.1923 81.5417 66.1922M81.5417 66.1922C83.039 65.696 84.6551 66.5071 85.152 68.0043C85.6489 69.5018 84.8378 71.1187 83.3402 71.6156L82.4404 68.9041C83.3402 71.6156 83.3392 71.616 83.3381 71.6163L83.3265 71.6201C83.3197 71.6224 83.3106 71.6254 83.2993 71.6291C83.2766 71.6365 83.245 71.6467 83.2046 71.6596C83.1239 71.6855 83.0081 71.7221 82.8586 71.7682C82.5596 71.8604 82.1257 71.9906 81.5683 72.1483C80.4539 72.4636 78.8438 72.8896 76.829 73.343C72.8032 74.2489 67.1405 75.269 60.5723 75.7287C47.4941 76.6442 30.5047 75.3595 15.7562 66.1705C14.417 65.3362 14.0078 63.5742 14.8422 62.235" fill="white"/>
</svg>
