<svg width="104" height="104" viewBox="0 0 104 104" fill="none" xmlns="http://www.w3.org/2000/svg">
<rect width="104" height="104" rx="16" fill="white"/>
<path d="M50.709 39.3954C49.9494 39.3521 49.6491 38.3817 50.2585 37.9254C53.5423 35.4675 62.1808 30.884 77.8347 34.5635C93.3384 38.2084 97.7342 47.5199 98.9674 51.9705C99.1812 52.7388 98.2974 53.3308 97.6735 52.837C93.246 49.3336 79.8738 41.0648 50.709 39.3954Z" fill="#1F293A"/>
<path d="M10.8852 34.1408C15.7576 31.2786 27.472 26.1319 45.9823 28.4309C47.0278 28.5608 47.7729 27.4258 47.2126 26.5333C45.2342 23.391 40.2492 18.1317 29.3551 19.1223C16.2197 20.318 11.0816 26.3572 9.0628 32.6678C8.71333 33.7653 9.8917 34.7242 10.8852 34.1408Z" fill="#1F293A"/>
<path d="M65.8227 59.8985C69.7929 59.8985 73.0113 56.6801 73.0113 52.7099C73.0113 48.7397 69.7929 45.5212 65.8227 45.5212C61.8525 45.5212 58.634 48.7397 58.634 52.7099C58.634 56.6801 61.8525 59.8985 65.8227 59.8985Z" fill="#1F293A"/>
<path d="M24.8656 57.8219C28.5662 57.8219 31.5661 54.8219 31.5661 51.1213C31.5661 47.4207 28.5662 44.4208 24.8656 44.4208C21.165 44.4208 18.165 47.4207 18.165 51.1213C18.165 54.8219 21.165 57.8219 24.8656 57.8219Z" fill="#1F293A"/>
<path d="M39.223 59.8671L39.2231 59.867C41.2236 53.6335 41.9591 47.1813 42.1911 42.2618C42.3071 39.804 42.2972 37.7333 42.2576 36.2699C42.2379 35.5383 42.2107 34.9587 42.1882 34.5588C42.177 34.3588 42.1669 34.2037 42.1595 34.097C42.1558 34.0437 42.1527 34.0025 42.1505 33.9738L42.148 33.9403L42.1472 33.9309L42.147 33.9282L42.1469 33.9275L42.1469 33.9274L42.1469 33.9271L42.6451 33.8847C42.57 33.0096 43.2198 32.2414 44.0949 32.1663L39.223 59.8671ZM39.223 59.8671C38.3341 62.6384 36.9983 67.448 36.5706 72.4497C36.1449 77.4279 36.6074 82.7203 39.447 86.3475M39.223 59.8671L39.447 86.3475M39.447 86.3475C41.6065 89.107 44.7683 90.4759 48.7824 90.4759M39.447 86.3475L48.7824 90.4759M48.7824 90.4759C49.2044 90.4759 49.6343 90.461 50.0778 90.4314L48.7824 90.4759Z" fill="#FCC526" stroke="#FCC526"/>
<path d="M52.401 68.0642L52.4011 68.0642C58.4531 67.6404 63.7044 66.6976 67.4528 65.8574C69.3266 65.4373 70.8239 65.0431 71.8567 64.7525C72.3731 64.6072 72.7733 64.4879 73.0464 64.4042C73.1829 64.3624 73.2876 64.3294 73.3592 64.3067L73.4413 64.2803L73.4633 64.2731L73.4694 64.2712L73.4714 64.2705L73.4719 64.2703C74.4908 63.932 75.5911 64.4842 75.9293 65.5028C76.2676 66.5217 75.7154 67.622 74.6968 67.9602L74.6952 67.9608C74.2963 68.0917 65.2504 71.0593 52.6703 71.9413C50.612 72.0864 48.3821 72.1764 46.033 72.1764C35.0906 72.1764 21.4434 70.2278 9.41487 62.7198M52.401 68.0642L9.41487 62.7198M52.401 68.0642C41.265 68.8467 25.1649 67.965 11.4757 59.4227M52.401 68.0642L11.4757 59.4227M9.41487 62.7198C8.50547 62.1524 8.22453 60.9511 8.79702 60.0398L9.22041 60.3057M9.41487 62.7198L9.22041 60.3057M9.22041 60.3057L8.7962 60.0411C9.36351 59.1318 10.5644 58.8508 11.4757 59.4227M9.22041 60.3057C8.79584 60.9816 9.00379 61.874 9.67962 62.2957L11.4757 59.4227" fill="#FE74A6" stroke="#FE74A6"/>
</svg>
