<svg
                xmlns="http://www.w3.org/2000/svg"
                width="32"
                height="32"
                viewBox="0 0 32 32"
                fill="none"
              >
                <path
                  d="M23.5484 24.4414C22.6837 24.4529 21.8246 24.2908 21.0163 23.9637C20.2921 23.6641 19.6378 23.2006 19.0986 22.6054C18.5674 21.9972 18.1571 21.2811 17.8925 20.5001C17.6018 19.6361 17.4579 18.724 17.4674 17.8063C17.4612 16.9045 17.6093 16.009 17.9045 15.1637C18.1797 14.3753 18.6032 13.6551 19.1492 13.0469C19.6967 12.4464 20.3508 11.9674 21.0736 11.6377C21.8565 11.2854 22.6998 11.1101 23.5497 11.123C24.4632 11.1023 25.368 11.3163 26.1871 11.7469C26.9183 12.1458 27.5525 12.72 28.0396 13.4241C28.531 14.1432 28.8854 14.9576 29.0831 15.8215C29.2987 16.7398 29.3757 17.6888 29.311 18.6329H20.7404C20.7063 19.5296 20.9952 20.4063 21.548 21.0842C22.1288 21.6262 22.8881 21.9005 23.659 21.8469C24.2645 21.862 24.8594 21.6773 25.3622 21.3181C25.7614 21.0589 26.0677 20.6652 26.2325 20.1995H29.1044C28.7789 21.5162 28.0301 22.67 26.9881 23.4604C25.9567 24.139 24.7606 24.4801 23.5484 24.4414ZM23.4565 13.7459C23.0086 13.728 22.5634 13.8253 22.1584 14.0294C21.8418 14.1993 21.5607 14.4356 21.3322 14.7241C21.1311 14.9863 20.9824 15.2892 20.895 15.6145C20.8181 15.8855 20.7685 16.1645 20.7471 16.4467H26.0539C26.0156 15.7115 25.7521 15.0099 25.3036 14.4491C24.8072 13.9506 24.1375 13.6956 23.4565 13.7459ZM10.6227 24.1125H2.6665V6.66704H10.3961C11.1122 6.66037 11.8269 6.73403 12.5284 6.88679C13.1226 7.0102 13.6887 7.25477 14.1956 7.60701C14.6534 7.94505 15.0207 8.40379 15.2618 8.93829C15.5278 9.58214 15.6553 10.2811 15.6349 10.9841C15.6638 11.7619 15.47 12.5307 15.0792 13.1887C14.6515 13.8169 14.0735 14.3118 13.4053 14.6221C14.3133 14.8635 15.1114 15.4397 15.6576 16.2482C16.1649 17.0802 16.4215 18.0571 16.3932 19.0483C16.4125 19.8411 16.2487 20.6268 15.9161 21.3366C15.6092 21.9661 15.1639 22.5074 14.6181 22.9145C14.0522 23.3334 13.4203 23.6407 12.7523 23.8219C12.055 24.0167 11.3369 24.1149 10.616 24.1139L10.6227 24.1125ZM6.27809 16.339V21.1452H10.1296C10.47 21.1491 10.8097 21.1124 11.1424 21.036C11.447 20.9734 11.7369 20.8472 11.9953 20.6645C12.2442 20.4905 12.4462 20.2506 12.5817 19.9684C12.7388 19.6145 12.8129 19.2253 12.7976 18.8342C12.8622 18.1085 12.5979 17.3934 12.086 16.9089C11.5336 16.5044 10.8712 16.3051 10.2015 16.3418L6.27809 16.339ZM6.27809 9.64007V13.7161H9.93233C10.4976 13.7398 11.0549 13.5682 11.5209 13.227C11.9602 12.8389 12.1915 12.2454 12.1393 11.6405C12.1505 11.2933 12.0809 10.9485 11.9367 10.6368C11.8064 10.3848 11.6144 10.1751 11.381 10.03C11.1352 9.87491 10.8638 9.77143 10.5813 9.72514C10.2738 9.6638 9.96134 9.63484 9.64846 9.63866L6.27809 9.64007ZM26.7229 9.56068H20.0728V7.83811H26.7229V9.55926V9.56068Z"
                  fill="#5B6DFF"
                />
              </svg>