              <svg
                xmlns="http://www.w3.org/2000/svg"
                width="32"
                height="32"
                viewBox="0 0 32 32"
                fill="none"
              >
                <path
                  fill-rule="evenodd"
                  clip-rule="evenodd"
                  d="M15.9601 2.66663C8.60909 2.66663 2.6665 8.77774 2.6665 16.338C2.6665 22.3813 6.47412 27.4969 11.7563 29.3075C12.4167 29.4436 12.6586 29.0133 12.6586 28.6513C12.6586 28.3344 12.6368 27.248 12.6368 26.1161C8.93888 26.9311 8.16882 24.4863 8.16882 24.4863C7.57453 22.9019 6.69399 22.4947 6.69399 22.4947C5.48365 21.6572 6.78215 21.6572 6.78215 21.6572C8.12474 21.7477 8.82923 23.0605 8.82923 23.0605C10.0175 25.1427 11.9324 24.5544 12.7027 24.1922C12.8126 23.3094 13.165 22.6983 13.5392 22.3588C10.5898 22.0419 7.48664 20.865 7.48664 15.6136C7.48664 14.1197 8.01453 12.8975 8.85099 11.9469C8.71902 11.6075 8.25671 10.2038 8.98324 8.32524C8.98324 8.32524 10.1057 7.96302 12.6366 9.72857C13.7201 9.42931 14.8376 9.27707 15.9601 9.27579C17.0826 9.27579 18.2268 9.4344 19.2834 9.72857C21.8145 7.96302 22.937 8.32524 22.937 8.32524C23.6635 10.2038 23.2009 11.6075 23.069 11.9469C23.9275 12.8975 24.4336 14.1197 24.4336 15.6136C24.4336 20.865 21.3305 22.0191 18.359 22.3588C18.8434 22.7888 19.2613 23.6036 19.2613 24.8938C19.2613 26.7272 19.2396 28.1986 19.2396 28.6511C19.2396 29.0133 19.4817 29.4436 20.1419 29.3077C25.4241 27.4966 29.2317 22.3813 29.2317 16.338C29.2534 8.77774 23.2891 2.66663 15.9601 2.66663Z"
                  fill="#5B6DFF"
                />
              </svg>