<svg
xmlns="http://www.w3.org/2000/svg"
width="32"
height="32"
viewBox="0 0 32 32"
fill="none"
>
<path
    d="M20.2667 16C20.2667 16.8438 20.0164 17.6687 19.5476 18.3704C19.0788 19.072 18.4124 19.6189 17.6328 19.9418C16.8531 20.2648 15.9953 20.3493 15.1676 20.1846C14.34 20.02 13.5797 19.6137 12.983 19.0169C12.3863 18.4202 11.9799 17.66 11.8153 16.8323C11.6507 16.0047 11.7352 15.1468 12.0581 14.3672C12.381 13.5875 12.9279 12.9212 13.6296 12.4524C14.3312 11.9835 15.1561 11.7333 16 11.7333C17.1312 11.7346 18.2157 12.1845 19.0156 12.9844C19.8154 13.7843 20.2654 14.8688 20.2667 16ZM29.3333 10.1333V21.8666C29.3311 23.8462 28.5437 25.7441 27.1439 27.1439C25.7441 28.5437 23.8463 29.3311 21.8667 29.3333H10.1333C8.15373 29.3311 6.25586 28.5437 4.85607 27.1439C3.45628 25.7441 2.6689 23.8462 2.66666 21.8666V10.1333C2.6689 8.1537 3.45628 6.25582 4.85607 4.85604C6.25586 3.45625 8.15373 2.66887 10.1333 2.66663H21.8667C23.8463 2.66887 25.7441 3.45625 27.1439 4.85604C28.5437 6.25582 29.3311 8.1537 29.3333 10.1333ZM22.4 16C22.4 14.7342 22.0246 13.4968 21.3214 12.4443C20.6182 11.3918 19.6186 10.5715 18.4492 10.0871C17.2797 9.60273 15.9929 9.47599 14.7514 9.72293C13.5099 9.96988 12.3696 10.5794 11.4745 11.4745C10.5795 12.3695 9.96991 13.5099 9.72296 14.7514C9.47602 15.9929 9.60276 17.2797 10.0872 18.4491C10.5716 19.6186 11.3919 20.6181 12.4443 21.3214C13.4968 22.0246 14.7342 22.4 16 22.4C17.6968 22.398 19.3235 21.7231 20.5234 20.5233C21.7232 19.3235 22.3981 17.6968 22.4 16ZM24.5333 9.06663C24.5333 8.75018 24.4395 8.44083 24.2637 8.17771C24.0879 7.9146 23.838 7.70952 23.5456 7.58842C23.2533 7.46732 22.9315 7.43563 22.6212 7.49737C22.3108 7.55911 22.0257 7.71149 21.802 7.93526C21.5782 8.15902 21.4258 8.44411 21.3641 8.75448C21.3023 9.06485 21.334 9.38656 21.4551 9.67892C21.5762 9.97128 21.7813 10.2212 22.0444 10.397C22.3075 10.5728 22.6169 10.6666 22.9333 10.6666C23.3577 10.6666 23.7646 10.4981 24.0647 10.198C24.3648 9.89794 24.5333 9.49097 24.5333 9.06663Z"
    fill="#5B6DFF"
/>
</svg>