<svg xmlns="http://www.w3.org/2000/svg" width="32" height="32" viewBox="0 0 32 32" fill="none" > <path fill-rule="evenodd" clip-rule="evenodd" d="M29.3332 26.6677C29.3332 28.1408 28.1296 29.3333 26.6453 29.3333H5.35442C3.87009 29.3333 2.6665 28.1392 2.6665 26.6677V5.33222C2.6665 3.8607 3.87009 2.66663 5.35442 2.66663H26.6453C28.1311 2.66663 29.3332 3.8607 29.3332 5.33222V26.6677ZM11.3413 9.18727C11.3413 10.1667 10.6092 10.9608 9.40563 10.9608C8.27338 10.9608 7.5413 10.1667 7.5413 9.18727C7.5413 8.1848 8.29665 7.41378 9.45371 7.41378C10.6092 7.41378 11.318 8.18327 11.3413 9.18727ZM7.63592 23.766V12.3587H11.2234V23.766H7.63592ZM13.2756 12.3587C13.3237 13.3857 13.3702 14.5752 13.3702 15.9977V23.766H16.9593V17.1871C16.9593 16.8606 16.9825 16.5341 17.0772 16.3012C17.3377 15.6482 17.9271 14.9722 18.9182 14.9722C20.2164 14.9722 20.736 15.9747 20.736 17.4446V23.766H24.3235V17.0247C24.3235 13.6662 22.5538 12.1027 20.1931 12.1027C18.2575 12.1027 17.1004 13.1987 16.6289 13.9452H16.5576L16.3916 12.3587H13.2756Z" fill="#5B6DFF" /> </svg>