<svg
xmlns="http://www.w3.org/2000/svg"
width="32"
height="32"
viewBox="0 0 32 32"
fill="none"
>
<path
    d="M16.0165 25.8119H15.9899C15.9073 25.8119 7.64342 25.7955 5.55847 25.2148C4.41198 24.8981 3.51662 23.9793 3.20841 22.8032C2.83349 20.634 2.65245 18.4341 2.66753 16.2311C2.65784 14.0244 2.84379 11.8215 3.22307 9.64937C3.53975 8.47227 4.43117 7.54922 5.57579 7.21317C7.60345 6.66663 15.6395 6.66663 15.9805 6.66663H16.0085C16.0924 6.66663 24.3776 6.68302 26.4412 7.26372C27.5853 7.58209 28.4789 8.49903 28.7886 9.6726C29.1755 11.8499 29.3571 14.0604 29.3308 16.2734C29.3402 18.4774 29.1538 20.6777 28.774 22.8469C28.4618 24.0215 27.5659 24.9383 26.4199 25.2558C24.3949 25.8065 16.3576 25.8119 16.0165 25.8119ZM13.352 12.1389L13.3454 20.337L20.289 16.2379L13.352 12.1389Z"
    fill="#5B6DFF"
/>
</svg>